<svg width="333" height="234" viewBox="0 0 333 234" fill="none" xmlns="http://www.w3.org/2000/svg">
<rect x="25.571" y="15.9415" width="9.71186" height="9.71186" transform="rotate(22.0652 25.571 15.9415)" fill="#EE8108"/>
<rect x="240.2" y="26.3024" width="7.71186" height="7.71186" transform="rotate(22.0652 240.2 26.3024)" stroke="#FF7575" stroke-width="2"/>
<rect x="151.7" y="7.01495" width="8.20817" height="8.20817" transform="rotate(-7.10297 151.7 7.01495)" fill="#23ED73"/>
<rect x="311.558" y="59.4493" width="7.20817" height="7.20817" transform="rotate(-7.10297 311.558 59.4493)" stroke="#F0D531"/>
<path d="M296.357 3.97925L307.832 10.0691L296.821 16.9614L296.357 3.97925Z" fill="#D509FF"/>
<path d="M45.4429 85.8373L51.778 97.1782L38.7889 96.9942L45.4429 85.8373Z" fill="#001AFF"/>
<path d="M94.8854 56.0688L102.428 50.2497L103.696 59.6912L94.8854 56.0688Z" stroke="#2ADEF3" stroke-width="2"/>
<rect x="255.571" y="145.942" width="9.71186" height="9.71186" transform="rotate(22.0652 255.571 145.942)" fill="#EE8108"/>
<rect x="100.2" y="116.302" width="7.71186" height="7.71186" transform="rotate(22.0652 100.2 116.302)" stroke="#FF7575" stroke-width="2"/>
<rect x="291.7" y="107.015" width="8.20817" height="8.20817" transform="rotate(-7.10297 291.7 107.015)" fill="#23ED73"/>
<rect x="201.558" y="189.449" width="7.20817" height="7.20817" transform="rotate(-7.10297 201.558 189.449)" stroke="#F0D531"/>
<path d="M76.3573 163.979L87.8318 170.069L76.8206 176.961L76.3573 163.979Z" fill="#D509FF"/>
<path d="M325.443 205.837L331.778 217.178L318.789 216.994L325.443 205.837Z" fill="#001AFF"/>
<path d="M4.88423 156.069L12.4266 150.25L13.6949 159.691L4.88423 156.069Z" stroke="#2ADEF3" stroke-width="2"/>
<path fill-rule="evenodd" clip-rule="evenodd" d="M165.759 167.668L167.166 173.33L171.064 169.288L162.999 199.388L191.097 229.154C162.602 225.394 146.851 221.228 119.19 209.887L157.634 197.987L165.759 167.668ZM165.759 167.668L145.463 86L229.626 108.551L171.064 169.288L171.117 169.087L165.763 167.653L165.759 167.668Z" fill="url(#paint0_linear)"/>
<path fill-rule="evenodd" clip-rule="evenodd" d="M165.759 167.668L167.166 173.33L171.064 169.288L162.999 199.388L191.097 229.154C162.602 225.394 146.851 221.228 119.19 209.887L157.634 197.987L165.759 167.668ZM165.759 167.668L145.463 86L229.626 108.551L171.064 169.288L171.117 169.087L165.763 167.653L165.759 167.668Z" fill="url(#paint1_linear)"/>
<path fill-rule="evenodd" clip-rule="evenodd" d="M165.759 167.668L167.166 173.33L171.064 169.288L162.999 199.388L191.097 229.154C162.602 225.394 146.851 221.228 119.19 209.887L157.634 197.987L165.759 167.668ZM165.759 167.668L145.463 86L229.626 108.551L171.064 169.288L171.117 169.087L165.763 167.653L165.759 167.668Z" fill="url(#paint2_linear)"/>
<path d="M156.252 75.9554C156.252 75.9554 161.547 89.1547 171.001 79.6821C180.455 70.2095 186.487 83.5951 186.487 83.5951" stroke="url(#paint3_linear)" stroke-width="3" stroke-linecap="round" stroke-linejoin="round"/>
<circle cx="207.534" cy="88.4657" r="9.53427" fill="url(#paint4_linear)"/>
<path d="M206.361 84.101C203.95 82.2479 205.369 76.3554 209.532 70.9399C213.694 65.5243 219.023 62.6364 221.434 64.4895" stroke="url(#paint5_linear)" stroke-width="2"/>
<defs>
<linearGradient id="paint0_linear" x1="201.189" y1="141.689" x2="152.753" y2="128.711" gradientUnits="userSpaceOnUse">
<stop stop-color="#FC5959"/>
<stop offset="0.489583" stop-color="#FC5959" stop-opacity="0.4"/>
<stop offset="1" stop-color="#FC5959"/>
</linearGradient>
<linearGradient id="paint1_linear" x1="212.019" y1="175.344" x2="127.784" y2="153.19" gradientUnits="userSpaceOnUse">
<stop stop-color="#E9F1F5"/>
<stop offset="0.473958" stop-color="#E9F1F5" stop-opacity="0.2"/>
<stop offset="1" stop-color="#D8E2E8"/>
</linearGradient>
<linearGradient id="paint2_linear" x1="153.805" y1="86.4438" x2="167.189" y2="231.643" gradientUnits="userSpaceOnUse">
<stop stop-color="#FC7900"/>
<stop offset="1" stop-color="#00FF85"/>
</linearGradient>
<linearGradient id="paint3_linear" x1="157.504" y1="71" x2="155.581" y2="84.246" gradientUnits="userSpaceOnUse">
<stop stop-color="#F4A862"/>
<stop offset="0.46875" stop-color="#DB9FBC"/>
<stop offset="1" stop-color="#A358DE"/>
</linearGradient>
<linearGradient id="paint4_linear" x1="198" y1="78.9315" x2="205.22" y2="101.749" gradientUnits="userSpaceOnUse">
<stop stop-color="#F4A862"/>
<stop offset="0.46875" stop-color="#DB9FBC"/>
<stop offset="1" stop-color="#A358DE"/>
</linearGradient>
<linearGradient id="paint5_linear" x1="217.069" y1="61.1342" x2="222.648" y2="79.0197" gradientUnits="userSpaceOnUse">
<stop stop-color="#F4A862"/>
<stop offset="0.46875" stop-color="#DB9FBC"/>
<stop offset="1" stop-color="#A358DE"/>
</linearGradient>
</defs>
</svg>
